<svg width="70" height="52" viewBox="0 0 70 52" fill="none" xmlns="http://www.w3.org/2000/svg">
<path fill-rule="evenodd" clip-rule="evenodd" d="M33.691 39.9412H15.5219C14.061 39.9412 12.6608 39.3827 11.6279 38.3922C10.584 37.3912 10 36.0326 10 34.6171V6.32399C10 3.392 12.4642 1 15.5219 1H48.9876C52.0452 1 54.5094 3.3918 54.5096 6.32368L54.5095 6.32692L54.5096 18.3206C54.5354 18.3434 54.5606 18.3671 54.5853 18.3918L56.6067 20.4148C57.2497 21.0579 57.2497 22.101 56.6067 22.744C55.0614 24.2892 56.1584 26.9365 58.3431 26.9365C59.2557 26.9365 59.9905 27.6744 59.9905 28.584V31.4429C59.9905 32.3525 59.2557 33.0903 58.3431 33.0903C56.1584 33.0903 55.0614 35.7376 56.6067 37.2828C57.2494 37.9255 57.2494 38.971 56.6067 39.6138L54.5853 41.6351C53.9426 42.2778 52.8971 42.2778 52.2543 41.6351C50.7092 40.09 48.0618 41.1868 48.0618 43.3716C48.0618 43.8314 47.8744 44.2459 47.5722 44.5442L47.5844 49.2765C47.5885 50.2184 46.8189 50.9932 45.8754 50.9956L44.2023 51C43.2591 51.0024 42.4868 50.2342 42.4844 49.291L42.4723 44.6133C42.2947 44.4588 42.1525 44.268 42.0552 44.0538C41.9578 43.8395 41.9077 43.6069 41.9081 43.3716C41.9081 41.1842 39.262 40.0887 37.7156 41.6351C37.0726 42.2781 36.0293 42.2781 35.3865 41.6353L33.691 39.9412ZM11.417 10.1484V34.6171C11.417 35.6498 11.8472 36.6392 12.6086 37.3694C13.3811 38.1101 14.4296 38.5242 15.5219 38.5242H32.883C32.8721 38.2952 32.9092 38.0665 32.9919 37.8527C33.0747 37.6389 33.2012 37.4448 33.3634 37.2828C34.9085 35.7376 33.8129 33.0903 31.6268 33.0903C30.7172 33.0903 29.9795 32.3525 29.9795 31.4429V28.584C29.9795 27.6744 30.7172 26.9365 31.6268 26.9365C33.8129 26.9365 34.9085 24.2892 33.3634 22.744C32.7202 22.101 32.7202 21.0579 33.3634 20.4148L35.3863 18.3918C36.0294 17.7487 37.0726 17.7487 37.7156 18.3918C39.2607 19.9369 41.9081 18.8413 41.9081 16.6553C41.9081 15.7456 42.6459 15.0079 43.5556 15.0079H46.4145C47.3241 15.0079 48.0618 15.7456 48.0618 16.6553C48.0618 18.8413 50.7092 19.9369 52.2543 18.3918C52.4832 18.1624 52.7749 18.0059 53.0926 17.9422V10.1484H11.417ZM16.4556 24.1736C16.0645 24.1736 15.7471 23.8562 15.7471 23.4651C15.7471 23.0741 16.0645 22.7566 16.4556 22.7566H31.9256C32.3166 22.7566 32.6341 23.0741 32.6341 23.4651C32.6341 23.8562 32.3166 24.1736 31.9256 24.1736H16.4556ZM16.4556 14.3535C16.0645 14.3535 15.7471 14.036 15.7471 13.645C15.7471 13.2539 16.0645 12.9365 16.4556 12.9365H39.4556C39.8467 12.9365 40.1641 13.2539 40.1641 13.645C40.1641 14.036 39.8467 14.3535 39.4556 14.3535H16.4556ZM16.4556 33.9937C16.0645 33.9937 15.7471 33.6762 15.7471 33.2852C15.7471 32.8942 16.0645 32.5767 16.4556 32.5767H28.9253C29.3164 32.5767 29.6338 32.8942 29.6338 33.2852C29.6338 33.6762 29.3164 33.9937 28.9253 33.9937H16.4556ZM16.4556 19.2636C16.0645 19.2636 15.7471 18.9462 15.7471 18.5551C15.7471 18.1641 16.0645 17.8466 16.4556 17.8466H31.9256C32.3166 17.8466 32.6341 18.1641 32.6341 18.5551C32.6341 18.9462 32.3166 19.2636 31.9256 19.2636H16.4556ZM16.4556 29.0837C16.0645 29.0837 15.7471 28.7662 15.7471 28.3752C15.7471 27.9841 16.0645 27.6667 16.4556 27.6667H27.6682C28.0593 27.6667 28.3767 27.9841 28.3767 28.3752C28.3767 28.7662 28.0593 29.0837 27.6682 29.0837H16.4556ZM11.417 6.32692V8.73138H53.0926V6.32409C53.0918 5.2917 52.6614 4.30263 51.9 3.57257C51.1277 2.83208 50.0798 2.41771 48.9876 2.417H15.5219C14.4298 2.41771 13.3818 2.83208 12.6095 3.57257C11.8481 4.30263 11.4177 5.2917 11.417 6.32409V6.32692ZM42.0521 4.42571C42.6862 4.42571 43.2009 4.94038 43.2009 5.57419C43.2009 6.208 42.6862 6.72257 42.0521 6.72257C41.4181 6.72257 40.9033 6.208 40.9033 5.57419C40.9033 4.94038 41.4181 4.42571 42.0521 4.42571ZM50.2154 4.42571C50.8494 4.42571 51.3642 4.94038 51.3642 5.57419C51.3642 6.208 50.8494 6.72257 50.2154 6.72257C49.5813 6.72257 49.0666 6.208 49.0666 5.57419C49.0666 4.94038 49.5813 4.42571 50.2154 4.42571ZM46.1338 4.42571C46.7678 4.42571 47.2826 4.94038 47.2826 5.57419C47.2826 6.208 46.7678 6.72257 46.1338 6.72257C45.4997 6.72257 44.985 6.208 44.985 5.57419C44.985 4.94038 45.4997 4.42571 46.1338 4.42571ZM43.8815 41.5978L43.9014 49.2872C43.9018 49.3658 43.9333 49.4411 43.989 49.4965C44.0447 49.5519 44.1201 49.583 44.1987 49.583L45.8717 49.5786C46.0345 49.5782 46.1681 49.4452 46.1674 49.2827V49.2814L46.1475 41.5919C46.1471 41.5133 46.1156 41.4381 46.0599 41.3827C46.0042 41.3272 45.9288 41.2961 45.8502 41.2962L44.1772 41.3005H44.1759C44.0134 41.3007 43.8811 41.4349 43.8815 41.5978ZM47.454 40.9883C48.7895 39.2932 51.4831 38.8599 53.2564 40.6331C53.3465 40.7233 53.4932 40.7233 53.5833 40.6331L55.6047 38.6118C55.648 38.5684 55.6723 38.5096 55.6723 38.4483C55.6723 38.387 55.648 38.3282 55.6047 38.2848C53.168 35.8481 54.8979 31.6733 58.3431 31.6733C58.3734 31.6733 58.4034 31.6674 58.4313 31.6558C58.4593 31.6443 58.4847 31.6273 58.5061 31.6059C58.5275 31.5845 58.5445 31.5591 58.556 31.5311C58.5676 31.5031 58.5735 31.4732 58.5735 31.4429V28.584C58.5735 28.5537 58.5676 28.5238 58.556 28.4958C58.5445 28.4678 58.5275 28.4424 58.5061 28.421C58.4847 28.3996 58.4593 28.3826 58.4313 28.371C58.4034 28.3595 58.3734 28.3535 58.3431 28.3535C54.8979 28.3535 53.168 24.1787 55.6047 21.7421C55.6478 21.6989 55.672 21.6404 55.672 21.5795C55.672 21.5185 55.6478 21.46 55.6047 21.4168L53.5833 19.3937C53.5398 19.3506 53.4811 19.3264 53.4198 19.3264C53.3586 19.3264 53.2998 19.3506 53.2564 19.3937C50.8196 21.8305 46.6448 20.1026 46.6448 16.6553C46.6448 16.5942 46.6205 16.5356 46.5773 16.4924C46.5341 16.4492 46.4756 16.4249 46.4145 16.4249H43.5556C43.4945 16.4249 43.4359 16.4492 43.3926 16.4924C43.3494 16.5356 43.3251 16.5942 43.3251 16.6553C43.3251 20.1026 39.1503 21.8305 36.7137 19.3937C36.6705 19.3506 36.612 19.3264 36.551 19.3264C36.4899 19.3264 36.4314 19.3506 36.3883 19.3937L34.3653 21.4168C34.3222 21.46 34.298 21.5185 34.298 21.5795C34.298 21.6404 34.3222 21.6989 34.3653 21.7421C36.802 24.1787 35.0742 28.3535 31.6268 28.3535C31.5657 28.3536 31.5071 28.3779 31.4639 28.4211C31.4207 28.4643 31.3965 28.5229 31.3965 28.584V31.4429C31.3965 31.504 31.4207 31.5626 31.4639 31.6058C31.5071 31.649 31.5657 31.6733 31.6268 31.6733C35.0742 31.6733 36.802 35.8481 34.3653 38.2848C34.322 38.3282 34.2977 38.387 34.2977 38.4483C34.2977 38.5096 34.322 38.5684 34.3653 38.6117L36.3883 40.6331C36.4096 40.6545 36.435 40.6714 36.4629 40.683C36.4908 40.6945 36.5207 40.7005 36.551 40.7005C36.5812 40.7005 36.6111 40.6945 36.639 40.683C36.6669 40.6714 36.6923 40.6545 36.7137 40.6331C38.507 38.8398 41.2381 39.2995 42.5579 41.0401C42.6784 40.6939 42.9059 40.3949 43.2074 40.1864L43.2026 38.3707C41.6488 38.041 40.1687 37.2745 38.9589 36.0708C35.6137 32.7429 35.5996 27.3326 38.9275 23.9873C42.2555 20.6421 47.6659 20.628 51.0111 23.9561C54.3563 27.284 54.3703 32.6943 51.0424 36.0396C49.8385 37.2497 48.3621 38.0239 46.8095 38.3616L46.8143 40.1771C47.1053 40.3759 47.3285 40.6589 47.454 40.9883ZM39.9321 24.9867C37.1561 27.7771 37.1678 32.2903 39.9582 35.0663C42.7487 37.8423 47.2617 37.8307 50.0379 35.0402C52.8139 32.2497 52.8021 27.7366 50.0117 24.9606C47.2213 22.1845 42.7082 22.1963 39.9321 24.9867ZM40.6868 27.6986C40.2958 27.6986 39.9783 27.3811 39.9783 26.9901C39.9783 26.599 40.2958 26.2816 40.6868 26.2816H49.2831C49.6741 26.2816 49.9916 26.599 49.9916 26.9901C49.9916 27.3811 49.6741 27.6986 49.2831 27.6986H40.6868ZM40.6868 33.7453C40.2958 33.7453 39.9783 33.4278 39.9783 33.0368C39.9783 32.6457 40.2958 32.3283 40.6868 32.3283H49.2831C49.6741 32.3283 49.9916 32.6457 49.9916 33.0368C49.9916 33.4278 49.6741 33.7453 49.2831 33.7453H40.6868ZM40.6868 30.722C40.2958 30.722 39.9783 30.4045 39.9783 30.0135C39.9783 29.6224 40.2958 29.305 40.6868 29.305H49.2831C49.6741 29.305 49.9916 29.6224 49.9916 30.0135C49.9916 30.4045 49.6741 30.722 49.2831 30.722H40.6868ZM44.6236 39.8824L45.3965 39.8804L45.393 38.548C45.1355 38.5602 44.8777 38.5608 44.6201 38.5499L44.6236 39.8824Z" fill="#444444" stroke="#444444"/>
</svg>
